<svg width="158" height="50" viewBox="0 0 158 50" version="1.1" xmlns="http://www.w3.org/2000/svg" xmlns:xlink="http://www.w3.org/1999/xlink">
<title>logo-new</title>
<desc>Created using Figma</desc>
<g id="Canvas" transform="translate(-2440 -668)">
<g id="logo-new">
<g id="logo">
<mask id="mask0_alpha" mask-type="alpha">
<g id="Ellipse">
<use xlink:href="#path0_fill" transform="translate(2440 668)" fill="#1ABCFE"/>
</g>
</mask>
<g id="Ellipse" mask="url(#mask0_alpha)">
<use xlink:href="#path0_fill" transform="translate(2440 668)" fill="#A259FF"/>
</g>
<g id="Polygon" mask="url(#mask0_alpha)">
<use xlink:href="#path1_fill" transform="matrix(0.502903 -0.864343 0.867691 0.497103 2451.64 695.165)" fill="#FFFFFF"/>
</g>
<g id="Rectangle" mask="url(#mask0_alpha)">
<use xlink:href="#path2_fill" transform="matrix(0.740929 0.671584 -0.67727 0.735735 2491.48 674.494)" fill="#1ABCFE"/>
</g>
<g id="Rectangle" mask="url(#mask0_alpha)">
<use xlink:href="#path3_fill" transform="matrix(-0.740929 0.671584 0.67727 0.735735 2439.21 674.71)" fill="#6D00FF"/>
</g>
<g id="Intersect" mask="url(#mask0_alpha)">
<use xlink:href="#path4_fill" transform="translate(2453.52 702.991)" fill="#0ACF83"/>
</g>
</g>
<g id="FIGMA">
<use xlink:href="#path5_fill" transform="translate(2503.32 670.586)" fill="#547091"/>
<use xlink:href="#path6_fill" transform="translate(2503.32 670.586)" fill="#547091"/>
<use xlink:href="#path7_fill" transform="translate(2503.32 670.586)" fill="#547091"/>
<use xlink:href="#path8_fill" transform="translate(2503.32 670.586)" fill="#547091"/>
<use xlink:href="#path9_fill" transform="translate(2503.32 670.586)" fill="#547091"/>
</g>
<g id="FREEBIES">
<use xlink:href="#path10_fill" transform="translate(2503.28 698.378)" fill="#547091"/>
<use xlink:href="#path11_fill" transform="translate(2503.28 698.378)" fill="#547091"/>
<use xlink:href="#path12_fill" transform="translate(2503.28 698.378)" fill="#547091"/>
<use xlink:href="#path13_fill" transform="translate(2503.28 698.378)" fill="#547091"/>
<use xlink:href="#path14_fill" transform="translate(2503.28 698.378)" fill="#547091"/>
<use xlink:href="#path15_fill" transform="translate(2503.28 698.378)" fill="#547091"/>
<use xlink:href="#path16_fill" transform="translate(2503.28 698.378)" fill="#547091"/>
<use xlink:href="#path17_fill" transform="translate(2503.28 698.378)" fill="#547091"/>
</g>
</g>
</g>
<defs>
<path id="path0_fill" d="M 50.3881 25C 50.3881 38.8071 39.1084 50 25.1941 50C 11.2798 50 0 38.8071 0 25C 0 11.1929 11.2798 0 25.1941 0C 39.1084 0 50.3881 11.1929 50.3881 25Z"/>
<path id="path1_fill" d="M 4.82154 0L 15.9027 19.2675L 0 15.7409L 4.82154 0Z"/>
<path id="path2_fill" d="M 0 0L 22.4899 0L 22.4899 56.0418L 0 56.0418L 0 0Z"/>
<path id="path3_fill" d="M 0 0L 22.4899 0L 22.4899 71.2845L 0 71.2845L 0 0Z"/>
<path id="path4_fill" d="M 27.0061 16.603L 16.6635 27.8384L 0 12.7345L 11.7225 0L 27.0061 16.603Z"/>
<path id="path5_fill" d="M 0 19.8946L 0 0.354288L 11.1643 0.354288L 11.1643 3.93805L 3.85876 3.93805L 3.85876 8.31214L 10.0795 8.31214L 10.0795 11.9095L 3.85876 11.9095L 3.85876 19.8946L 0 19.8946Z"/>
<path id="path6_fill" d="M 15.5295 19.8946L 15.5295 0.354288L 19.3883 0.354288L 19.3883 19.8946L 15.5295 19.8946Z"/>
<path id="path7_fill" d="M 24.1242 10.0972C 24.1242 8.17133 24.5408 6.44077 25.3739 4.90552C 26.207 3.37028 27.3742 2.17115 28.8756 1.30814C 30.377 0.436047 32.0752 0 33.9702 0C 36.3871 0 38.36 0.599564 39.8888 1.79869C 41.4177 2.98874 42.4522 4.61028 42.9923 6.66334L 38.7491 6.66334C 37.9984 4.6012 36.3734 3.57013 33.8741 3.57013C 32.1805 3.57013 30.8027 4.18332 29.7407 5.4097C 28.6788 6.63608 28.1478 8.19858 28.1478 10.0972C 28.1478 12.0231 28.6879 13.6037 29.7682 14.8392C 30.8576 16.0656 32.2858 16.6788 34.0526 16.6788C 35.4899 16.6788 36.648 16.3517 37.5269 15.6977C 38.4149 15.0436 38.9047 14.117 38.9962 12.9179L 34.2998 12.9179L 34.2998 9.34775L 43.1296 9.34775L 43.1296 11.0511C 43.1296 12.9678 42.7451 14.6257 41.9761 16.0247C 41.2163 17.4237 40.1543 18.482 38.7903 19.1997C 37.4353 19.9082 35.8561 20.2625 34.0526 20.2625C 32.1301 20.2625 30.409 19.8265 28.8893 18.9544C 27.3788 18.0732 26.207 16.8605 25.3739 15.3161C 24.5408 13.7718 24.1242 12.0322 24.1242 10.0972Z"/>
<path id="path8_fill" d="M 48.2364 19.8946L 48.2364 0.354288L 52.6856 0.354288L 58.3158 12.9451L 58.7278 14.0898L 59.181 12.9451L 64.8386 0.354288L 69.3016 0.354288L 69.3016 19.8946L 65.4291 19.8946L 65.4291 7.53543L 64.8661 9.23874L 60.3894 19.8946L 57.1349 19.8946L 52.6582 9.23874L 52.0951 7.53543L 52.0951 19.8946L 48.2364 19.8946Z"/>
<path id="path9_fill" d="M 73.3785 19.8946L 80.9998 0.354288L 85.2431 0.354288L 92.8645 19.8946L 88.6762 19.8946L 87.042 15.575L 79.2009 15.575L 77.5668 19.8946L 73.3785 19.8946ZM 80.4094 12.2229L 85.8061 12.2229L 83.4716 6.10465L 83.1009 5.01454L 82.7438 6.10465L 80.4094 12.2229Z"/>
<path id="path10_fill" d="M 0 17.6841L 0 0.314922L 9.42336 0.314922L 9.42336 2.42248L 2.2704 2.42248L 2.2704 7.9094L 8.3492 7.9094L 8.3492 10.0412L 2.2704 10.0412L 2.2704 17.6841L 0 17.6841Z"/>
<path id="path11_fill" d="M 12.0355 17.6841L 12.0355 0.314922L 16.8083 0.314922C 18.5578 0.314922 19.9494 0.791344 20.9828 1.74419C 22.0163 2.69703 22.5331 3.96883 22.5331 5.55959C 22.5331 6.69816 22.2401 7.67926 21.6542 8.50291C 21.0764 9.31848 20.2627 9.90795 19.2129 10.2713L 23.2777 17.6841L 20.6777 17.6841L 16.8571 10.6347L 14.3059 10.6347L 14.3059 17.6841L 12.0355 17.6841ZM 14.3059 8.59981L 16.8083 8.59981C 17.858 8.59981 18.688 8.3293 19.2984 7.78827C 19.9168 7.23918 20.2261 6.49629 20.2261 5.55959C 20.2261 4.58253 19.9168 3.81541 19.2984 3.25824C 18.688 2.70107 17.858 2.42248 16.8083 2.42248L 14.3059 2.42248L 14.3059 8.59981Z"/>
<path id="path12_fill" d="M 25.7311 17.6841L 25.7311 0.314922L 35.3498 0.314922L 35.3498 2.42248L 28.0015 2.42248L 28.0015 7.69138L 34.4832 7.69138L 34.4832 9.79893L 28.0015 9.79893L 28.0015 15.5765L 35.3498 15.5765L 35.3498 17.6841L 25.7311 17.6841Z"/>
<path id="path13_fill" d="M 38.4747 17.6841L 38.4747 0.314922L 48.0933 0.314922L 48.0933 2.42248L 40.7451 2.42248L 40.7451 7.69138L 47.2267 7.69138L 47.2267 9.79893L 40.7451 9.79893L 40.7451 15.5765L 48.0933 15.5765L 48.0933 17.6841L 38.4747 17.6841Z"/>
<path id="path14_fill" d="M 51.2182 17.6841L 51.2182 0.314922L 56.0885 0.314922C 57.773 0.314922 59.1076 0.742894 60.0922 1.59884C 61.0769 2.44671 61.5692 3.59335 61.5692 5.03876C 61.5692 6.59722 60.9426 7.77616 59.6894 8.57558C 60.6253 8.90665 61.3495 9.4396 61.8622 10.1744C 62.383 10.9012 62.6434 11.749 62.6434 12.718C 62.6434 14.22 62.1226 15.4231 61.081 16.3275C 60.0393 17.2319 58.6356 17.6841 56.8697 17.6841L 51.2182 17.6841ZM 53.4886 15.5765L 56.8697 15.5765C 57.9358 15.5765 58.7739 15.3222 59.3843 14.8135C 60.0027 14.2967 60.312 13.582 60.312 12.6696C 60.312 11.7894 60.0068 11.103 59.3965 10.6105C 58.7943 10.1179 57.952 9.87161 56.8697 9.87161L 53.4886 9.87161L 53.4886 15.5765ZM 53.4886 7.78827L 56.1862 7.78827C 57.122 7.78827 57.8666 7.55006 58.42 7.07364C 58.9815 6.58915 59.2622 5.95123 59.2622 5.15988C 59.2622 4.27972 58.9815 3.60546 58.42 3.13711C 57.8666 2.66069 57.0895 2.42248 56.0885 2.42248L 53.4886 2.42248L 53.4886 7.78827Z"/>
<path id="path15_fill" d="M 65.4997 17.6841L 65.4997 0.314922L 67.7701 0.314922L 67.7701 17.6841L 65.4997 17.6841Z"/>
<path id="path16_fill" d="M 71.6761 17.6841L 71.6761 0.314922L 81.2948 0.314922L 81.2948 2.42248L 73.9465 2.42248L 73.9465 7.69138L 80.4282 7.69138L 80.4282 9.79893L 73.9465 9.79893L 73.9465 15.5765L 81.2948 15.5765L 81.2948 17.6841L 71.6761 17.6841Z"/>
<path id="path17_fill" d="M 83.492 12.5727L 85.7868 12.5727C 85.803 13.6628 86.1204 14.5066 86.7389 15.1042C 87.3573 15.7017 88.2159 16.0005 89.3144 16.0005C 90.2991 16.0005 91.0599 15.7421 91.597 15.2253C 92.1423 14.7004 92.4149 13.9979 92.4149 13.1177C 92.4149 12.391 92.1382 11.7934 91.5848 11.3251C 91.0396 10.8487 90.0916 10.3803 88.7407 9.92006C 87.1213 9.32251 85.921 8.66037 85.1398 7.93362C 84.3749 7.19073 83.9924 6.15714 83.9924 4.83285C 83.9924 3.44396 84.4319 2.28521 85.3107 1.35659C 86.214 0.452196 87.4591 0 89.0459 0C 90.6164 0 91.8534 0.427972 92.7566 1.28391C 93.6599 2.13178 94.1278 3.33899 94.1604 4.90552L 91.8656 4.90552C 91.8493 4.00921 91.5808 3.30669 91.0599 2.79797C 90.5473 2.28924 89.8597 2.03488 88.9971 2.03488C 88.167 2.03488 87.5079 2.26502 87.0196 2.72529C 86.5314 3.18556 86.2872 3.83156 86.2872 4.66328C 86.2872 5.43847 86.5314 6.04005 87.0196 6.46802C 87.5323 6.87984 88.4478 7.34415 89.7661 7.86095C 91.5808 8.53924 92.8543 9.24176 93.5867 9.96851C 94.3353 10.7114 94.7137 11.7127 94.7219 12.9724C 94.7219 14.5066 94.2255 15.73 93.2327 16.6424C 92.2399 17.5549 90.9257 18.0111 89.29 18.0111C 87.5079 18.0111 86.1041 17.5226 85.0788 16.5455C 84.0535 15.5685 83.5245 14.2442 83.492 12.5727Z"/>
</defs>
</svg>
